<?xml version="1.0" encoding="UTF-8"?>
<svg xmlns="http://www.w3.org/2000/svg" xmlns:xlink="http://www.w3.org/1999/xlink" width="100pt" height="100pt" viewBox="0 0 100 100" version="1.1">
<g id="surface1">
<path style=" stroke:none;fill-rule:nonzero;fill:#F9C320;fill-opacity:1;" d="M 76 4 C 73.882813 4 71.789063 4.328125 69.75 5 L 66.625 6 L 80.1875 19.5625 L 77.75 25.75 L 71.5625 28.1875 L 58.0625 14.625 L 57 17.75 C 56.328125 19.789063 56 21.890625 56 24 C 56 31.96875 60.765625 39.15625 68 42.3125 L 68 86 C 68 91.515625 72.484375 96 78 96 C 83.515625 96 88 91.515625 88 86 L 88 40 C 93.03125 36.226563 96 30.320313 96 24 C 96 12.96875 87.03125 4 76 4 Z M 45 28 C 42.578125 28 40.257813 28.90625 38.4375 30.5 L 25.0625 42.1875 L 4.5625 47.3125 C 1.898438 47.976563 0 50.382813 0 53.125 L 0 64 C 0 67.289063 2.710938 70 6 70 L 8.1875 70 C 9.125 74.546875 13.1875 78 18 78 C 22.8125 78 26.875 74.546875 27.8125 70 L 64 70 L 64 66 L 27.8125 66 C 26.875 61.453125 22.8125 58 18 58 C 13.1875 58 9.125 61.453125 8.1875 66 L 6 66 C 4.867188 66 4 65.132813 4 64 L 4 53.125 C 4 52.195313 4.601563 51.414063 5.5 51.1875 L 26.5 45.9375 C 26.804688 45.859375 27.078125 45.710938 27.3125 45.5 L 41.0625 33.5 C 42.15625 32.539063 43.546875 32 45 32 L 54 32 L 54 28 Z M 18 62 C 21.335938 62 24 64.664063 24 68 C 24 71.335938 21.335938 74 18 74 C 14.664063 74 12 71.335938 12 68 C 12 64.664063 14.664063 62 18 62 Z "/>
</g>
</svg>
