<?xml version="1.0" encoding="UTF-8"?>
<svg xmlns="http://www.w3.org/2000/svg" xmlns:xlink="http://www.w3.org/1999/xlink" width="75pt" height="75pt" viewBox="0 0 100 100" version="1.1">
<g id="surface1">
<path style=" stroke:none;fill-rule:nonzero;fill:#F9C320;fill-opacity:1;" d="M 68.4375 4.25 L 67.3125 5.875 L 49.5 31.6875 L 34.0625 36.25 C 32.015625 36.867188 30.28125 38.203125 29.125 40 L 16.3125 59.8125 L 24.4375 87.375 L 39.25 84.125 C 39.625 84.046875 40 83.914063 40.375 83.8125 C 44 82.59375 47.171875 80.398438 49.5625 77.375 L 51.4375 74.6875 L 59.9375 80.625 L 61.5625 81.75 L 62.75 80.0625 L 98.875 27.6875 L 100.0625 26.0625 L 98.375 24.9375 L 70.125 5.375 Z M 69.5 9.8125 L 94.5 27.125 L 80.4375 47.5 C 82.148438 41.710938 79.414063 34.710938 73.375 30.5625 C 69.914063 28.1875 65.890625 27.078125 62 27.4375 C 59.703125 27.648438 57.632813 28.359375 55.875 29.5 Z M 77.8125 21.75 C 76.742188 21.742188 75.710938 22.234375 75.0625 23.1875 C 74.023438 24.703125 74.414063 26.828125 75.9375 27.875 C 77.460938 28.921875 79.523438 28.515625 80.5625 27 C 81.601563 25.484375 81.210938 23.421875 79.6875 22.375 C 79.117188 21.984375 78.453125 21.757813 77.8125 21.75 Z M 50.75 36.9375 C 50.164063 39.71875 50.539063 42.773438 51.8125 45.625 L 53.375 44.25 C 55.195313 42.765625 57.523438 42 59.875 42 C 62.523438 42 65.023438 42.976563 66.9375 44.8125 C 70.0625 47.804688 70.898438 52.3125 69.3125 56.125 C 71.945313 55.898438 74.3125 54.976563 76.25 53.5 L 60.5625 76.1875 L 53.75 71.5 L 64.75 56.0625 C 66.734375 53.539063 66.5 49.90625 64.1875 47.6875 C 61.914063 45.507813 58.375 45.382813 55.9375 47.375 L 44.625 56.8125 L 39.9375 54 Z M 12.1875 60.0625 L 0 63.8125 L 10.0625 97.875 L 22.3125 94.125 Z "/>
</g>
</svg>
