<?xml version="1.0" encoding="UTF-8"?>
<svg xmlns="http://www.w3.org/2000/svg" xmlns:xlink="http://www.w3.org/1999/xlink" width="85pt" height="85pt" viewBox="0 0 100 100" version="1.1">
<g id="surface1">
<path style=" stroke:none;fill-rule:nonzero;fill:#F9C320;fill-opacity:1;" d="M 4 0 C 1.8125 0 0 1.8125 0 4 L 0 72 C 0 72.71875 0.21875 73.414063 0.5625 74 C 0.21875 74.585938 0 75.28125 0 76 L 0 96 C 0 98.1875 1.8125 100 4 100 L 96 100 C 98.1875 100 100 98.1875 100 96 L 100 76 C 100 75.28125 99.78125 74.585938 99.4375 74 C 99.78125 73.414063 100 72.71875 100 72 L 100 4 C 100 1.8125 98.1875 0 96 0 Z M 4 4 L 96 4 L 96 72 L 4 72 Z M 12 8 C 9.8125 8 8 9.8125 8 12 L 8 58 C 8 60.1875 9.8125 62 12 62 L 88 62 C 90.1875 62 92 60.1875 92 58 L 92 12 C 92 9.8125 90.1875 8 88 8 Z M 12 12 L 88 12 L 88 58 L 12 58 Z M 4 76 L 96 76 L 96 96 L 4 96 Z M 84 82 C 81.789063 82 80 83.789063 80 86 C 80 88.210938 81.789063 90 84 90 C 86.210938 90 88 88.210938 88 86 C 88 83.789063 86.210938 82 84 82 Z M 12 84 L 12 88 L 52 88 L 52 84 Z "/>
</g>
</svg>
