<?xml version="1.0" encoding="UTF-8"?>
<svg xmlns="http://www.w3.org/2000/svg" xmlns:xlink="http://www.w3.org/1999/xlink" width="75pt" height="75pt" viewBox="0 0 100 100" version="1.1">
<g id="surface1">
<path style=" stroke:none;fill-rule:nonzero;fill:#F9C320;fill-opacity:1;" d="M 50 0 C 46.304688 0 43.28125 2.578125 42.375 6 L 18 6 C 14.710938 6 12 8.710938 12 12 L 12 90 C 12 93.289063 14.710938 96 18 96 L 82 96 C 85.289063 96 88 93.289063 88 90 L 88 12 C 88 8.710938 85.289063 6 82 6 L 64.125 6 C 64.085938 6 64.039063 6 64 6 L 57.625 6 C 56.71875 2.578125 53.695313 0 50 0 Z M 50 4 C 52.234375 4 54 5.765625 54 8 C 54 9.101563 54.898438 10 56 10 L 62 10 L 62 14 L 38 14 L 38 10 L 44 10 C 45.101563 10 46 9.101563 46 8 C 46 5.765625 47.765625 4 50 4 Z M 18 10 L 34 10 L 34 16 C 34 17.101563 34.898438 18 36 18 L 64 18 C 65.101563 18 66 17.101563 66 16 L 66 10 L 82 10 C 83.132813 10 84 10.867188 84 12 L 84 90 C 84 91.132813 83.132813 92 82 92 L 18 92 C 16.867188 92 16 91.132813 16 90 L 16 12 C 16 10.867188 16.867188 10 18 10 Z M 72 33.875 C 71.890625 33.890625 71.789063 33.90625 71.6875 33.9375 C 71.648438 33.953125 71.601563 33.976563 71.5625 34 C 71.046875 34.117188 70.59375 34.429688 70.3125 34.875 L 63.6875 44.8125 L 59.4375 40.5625 C 59.023438 40.117188 58.421875 39.890625 57.8125 39.9375 C 57.726563 39.953125 57.640625 39.976563 57.5625 40 C 56.8125 40.132813 56.210938 40.679688 56 41.40625 C 55.789063 42.140625 56.007813 42.921875 56.5625 43.4375 L 62.3125 49.1875 C 62.351563 49.234375 62.390625 49.273438 62.4375 49.3125 L 62.5625 49.4375 C 62.585938 49.460938 62.601563 49.476563 62.625 49.5 C 62.648438 49.523438 62.664063 49.539063 62.6875 49.5625 C 62.710938 49.585938 62.726563 49.601563 62.75 49.625 C 62.828125 49.671875 62.914063 49.710938 63 49.75 C 63.039063 49.773438 63.085938 49.796875 63.125 49.8125 C 63.164063 49.835938 63.210938 49.859375 63.25 49.875 C 63.273438 49.875 63.289063 49.875 63.3125 49.875 C 63.351563 49.898438 63.398438 49.921875 63.4375 49.9375 C 63.460938 49.9375 63.476563 49.9375 63.5 49.9375 C 63.539063 49.960938 63.585938 49.984375 63.625 50 C 63.648438 50 63.664063 50 63.6875 50 C 63.726563 50 63.773438 50 63.8125 50 C 63.835938 50 63.851563 50 63.875 50 C 64 50.007813 64.125 50.007813 64.25 50 C 64.273438 50 64.289063 50 64.3125 50 C 64.460938 49.976563 64.609375 49.929688 64.75 49.875 C 64.789063 49.859375 64.835938 49.835938 64.875 49.8125 C 64.9375 49.796875 65 49.773438 65.0625 49.75 C 65.109375 49.710938 65.148438 49.671875 65.1875 49.625 C 65.226563 49.609375 65.273438 49.585938 65.3125 49.5625 C 65.382813 49.507813 65.445313 49.445313 65.5 49.375 C 65.546875 49.3125 65.585938 49.25 65.625 49.1875 C 65.648438 49.164063 65.664063 49.148438 65.6875 49.125 L 65.75 49.0625 C 65.773438 49 65.796875 48.9375 65.8125 48.875 L 73.6875 37.125 C 74.1875 36.507813 74.273438 35.65625 73.90625 34.953125 C 73.539063 34.242188 72.789063 33.820313 72 33.875 Z M 27.4375 40 C 26.335938 40.15625 25.5625 41.179688 25.71875 42.28125 C 25.875 43.382813 26.898438 44.15625 28 44 L 48 44 C 48.71875 44.007813 49.390625 43.632813 49.757813 43.007813 C 50.117188 42.382813 50.117188 41.617188 49.757813 40.992188 C 49.390625 40.367188 48.71875 39.992188 48 40 L 28 40 C 27.9375 40 27.875 40 27.8125 40 C 27.75 40 27.6875 40 27.625 40 C 27.5625 40 27.5 40 27.4375 40 Z M 72 59.875 C 71.890625 59.890625 71.789063 59.90625 71.6875 59.9375 C 71.648438 59.953125 71.601563 59.976563 71.5625 60 C 71.046875 60.117188 70.59375 60.429688 70.3125 60.875 L 63.6875 70.8125 L 59.4375 66.5625 C 59.023438 66.117188 58.421875 65.890625 57.8125 65.9375 C 57.726563 65.953125 57.640625 65.976563 57.5625 66 C 56.8125 66.132813 56.210938 66.679688 56 67.40625 C 55.789063 68.140625 56.007813 68.921875 56.5625 69.4375 L 62.3125 75.1875 C 62.351563 75.234375 62.390625 75.273438 62.4375 75.3125 L 62.5625 75.4375 C 62.585938 75.460938 62.601563 75.476563 62.625 75.5 C 62.648438 75.523438 62.664063 75.539063 62.6875 75.5625 C 62.710938 75.585938 62.726563 75.601563 62.75 75.625 C 62.828125 75.671875 62.914063 75.710938 63 75.75 C 63.039063 75.773438 63.085938 75.796875 63.125 75.8125 C 63.164063 75.835938 63.210938 75.859375 63.25 75.875 C 63.273438 75.875 63.289063 75.875 63.3125 75.875 C 63.351563 75.898438 63.398438 75.921875 63.4375 75.9375 C 63.460938 75.9375 63.476563 75.9375 63.5 75.9375 C 63.539063 75.960938 63.585938 75.984375 63.625 76 C 63.648438 76 63.664063 76 63.6875 76 C 63.726563 76 63.773438 76 63.8125 76 C 63.835938 76 63.851563 76 63.875 76 C 64 76.007813 64.125 76.007813 64.25 76 C 64.273438 76 64.289063 76 64.3125 76 C 64.460938 75.976563 64.609375 75.929688 64.75 75.875 C 64.789063 75.859375 64.835938 75.835938 64.875 75.8125 C 64.9375 75.796875 65 75.773438 65.0625 75.75 C 65.109375 75.710938 65.148438 75.671875 65.1875 75.625 C 65.226563 75.609375 65.273438 75.585938 65.3125 75.5625 C 65.382813 75.507813 65.445313 75.445313 65.5 75.375 C 65.546875 75.3125 65.585938 75.25 65.625 75.1875 C 65.648438 75.164063 65.664063 75.148438 65.6875 75.125 L 65.75 75.0625 C 65.773438 75 65.796875 74.9375 65.8125 74.875 L 73.6875 63.125 C 74.1875 62.507813 74.273438 61.65625 73.90625 60.953125 C 73.539063 60.242188 72.789063 59.820313 72 59.875 Z M 27.4375 66 C 26.335938 66.15625 25.5625 67.179688 25.71875 68.28125 C 25.875 69.382813 26.898438 70.15625 28 70 L 48 70 C 48.71875 70.007813 49.390625 69.632813 49.757813 69.007813 C 50.117188 68.382813 50.117188 67.617188 49.757813 66.992188 C 49.390625 66.367188 48.71875 65.992188 48 66 L 28 66 C 27.9375 66 27.875 66 27.8125 66 C 27.75 66 27.6875 66 27.625 66 C 27.5625 66 27.5 66 27.4375 66 Z "/>
</g>
</svg>
