<?xml version="1.0" encoding="UTF-8"?>
<svg xmlns="http://www.w3.org/2000/svg" xmlns:xlink="http://www.w3.org/1999/xlink" width="75pt" height="75pt" viewBox="0 0 100 100" version="1.1">
<g id="surface1">
<path style=" stroke:none;fill-rule:nonzero;fill:#F9C320;fill-opacity:1;" d="M 4 4 C 1.8125 4 0 5.8125 0 8 L 0 80 C 0 82.1875 1.8125 84 4 84 L 38 84 L 38 88 L 29.75 88 C 26.515625 88 24 90.773438 24 94 L 24 100 L 76 100 L 76 94 C 76 90.773438 73.484375 88 70.25 88 L 62 88 L 62 84 L 96 84 C 98.1875 84 100 82.1875 100 80 L 100 8 C 100 5.8125 98.1875 4 96 4 Z M 4 8 L 96 8 L 96 80 L 60.375 80 C 60.109375 79.945313 59.828125 79.945313 59.5625 80 L 40.375 80 C 40.109375 79.945313 39.828125 79.945313 39.5625 80 L 4 80 Z M 12 12 C 9.8125 12 8 13.8125 8 16 L 8 64 C 8 66.1875 9.8125 68 12 68 L 88 68 C 90.1875 68 92 66.1875 92 64 L 92 16 C 92 13.8125 90.1875 12 88 12 Z M 12 16 L 88 16 L 88 64 L 12 64 Z M 65.6875 27.1875 L 64.4375 28.75 L 48.1875 49.5 L 35.3125 38.125 L 33.8125 36.75 L 31.1875 39.75 L 32.6875 41.125 L 47.0625 53.875 L 48.6875 55.3125 L 50 53.625 L 67.5625 31.25 L 68.8125 29.6875 Z M 86 70 C 83.789063 70 82 71.789063 82 74 C 82 76.210938 83.789063 78 86 78 C 88.210938 78 90 76.210938 90 74 C 90 71.789063 88.210938 70 86 70 Z M 42 84 L 58 84 L 58 88 L 42 88 Z M 29.75 92 L 70.25 92 C 71.179688 92 72 92.820313 72 94 L 72 96 L 28 96 L 28 94 C 28 92.820313 28.820313 92 29.75 92 Z "/>
</g>
</svg>
