<?xml version="1.0" encoding="UTF-8"?>
<svg xmlns="http://www.w3.org/2000/svg" xmlns:xlink="http://www.w3.org/1999/xlink" width="75pt" height="75pt" viewBox="0 0 100 100" version="1.1">
<g id="surface1">
<path style=" stroke:none;fill-rule:nonzero;fill:#F9C320;fill-opacity:1;" d="M 10 4 C 7.796875 4 6 5.796875 6 8 L 6 61.0625 C 7.132813 60.46875 8.367188 60 9.6875 60 L 90.1875 60 C 91.554688 60 92.84375 60.5 94 61.125 L 94 8 C 94 5.796875 92.203125 4 90 4 Z M 16 14 L 84 14 L 84 54 L 16 54 Z M 9.6875 64.125 C 7.804688 64.125 6.070313 65.5 5.625 67.375 L 0.5 89.5625 C 0.359375 90.15625 0.492188 90.773438 0.875 91.25 C 1.257813 91.726563 1.828125 92 2.4375 92 L 97.5 92 C 98.109375 92 98.6875 91.726563 99.0625 91.25 C 99.445313 90.773438 99.578125 90.15625 99.4375 89.5625 L 94.25 67.375 C 93.8125 65.5 92.078125 64.125 90.1875 64.125 Z M 20.6875 68 L 29.1875 68 L 28.6875 72 L 19.9375 72 Z M 33.1875 68 L 41.75 68 L 41.5625 72 L 32.75 72 Z M 45.75 68 L 54.25 68 L 54.4375 72 L 45.5625 72 Z M 58.25 68 L 66.8125 68 L 67.25 72 L 58.4375 72 Z M 70.8125 68 L 79.3125 68 L 80.0625 72 L 71.3125 72 Z M 19.1875 76 L 28.25 76 L 27.8125 80 L 18.4375 80 Z M 32.3125 76 L 41.4375 76 L 41.25 80 L 31.8125 80 Z M 45.4375 76 L 54.5625 76 L 54.75 80 L 45.25 80 Z M 58.5625 76 L 67.6875 76 L 68.1875 80 L 58.75 80 Z M 71.75 76 L 80.8125 76 L 81.5625 80 L 72.1875 80 Z M 44 84 L 56 84 C 58 84 59.789063 85.296875 60.25 87.0625 L 60.5625 88 L 39.375 88 L 39.75 87.0625 C 40.210938 85.296875 42 84 44 84 Z M 0 95.4375 L 0 96 C 0 98.203125 1.796875 100 4 100 L 96 100 C 98.203125 100 100 98.203125 100 96 L 100 95.4375 C 99.226563 95.796875 98.382813 96 97.5 96 L 2.4375 96 C 1.578125 96 0.757813 95.78125 0 95.4375 Z "/>
</g>
</svg>
